PathFileType	4	(X/Y/Z)	61_1_44_p0_0-332_filt_butterworth.trc
DataRate	CameraRate	NumFrames	NumMarkers	Units	OrigDataRate	OrigDataStartFrame	OrigNumFrames
50.0	50.0	6	27	m	50.0	290	332
Frame#	Time	RHip			RKnee			RAnkle			RBigToe			RSmallToe			RHeel			LHip			LKnee			LAnkle			LBigToe			LSmallToe			LHeel			Neck			Head			Nose			RShoulder			RElbow			RWrist			RThumb			RIndex			RPinky			LShoulder			LElbow			LWrist			LThumb			LIndex			LPinky			
		X1	Y1	Z1	X2	Y2	Z2	X3	Y3	Z3	X4	Y4	Z4	X5	Y5	Z5	X6	Y6	Z6	X7	Y7	Z7	X8	Y8	Z8	X9	Y9	Z9	X10	Y10	Z10	X11	Y11	Z11	X12	Y12	Z12	X13	Y13	Z13	X14	Y14	Z14	X15	Y15	Z15	X16	Y16	Z16	X17	Y17	Z17	X18	Y18	Z18	X19	Y19	Z19	X20	Y20	Z20	X21	Y21	Z21	X22	Y22	Z22	X23	Y23	Z23	X24	Y24	Z24	X25	Y25	Z25	X26	Y26	Z26	X27	Y27	Z27	
290	5.8	0.375362032670507	0.5988606578261443	0.9304352943645389	0.360262366903729	0.7396576946418698	1.3581069383854594	0.3375749925595685	0.8794954292512933	1.7894700001755561	0.35435115554982083	0.7388560998984074	1.8249416465740893	0.40554630465598535	0.7824108485397957	1.820566730202685	0.2883546493074739	0.9176418907055458	1.825935294916763	0.17032377151557757	0.5649606080301781	0.9480692120624957	0.12383847385497586	0.7024684944939369	1.370168343128079	0.09631118955781348	0.8274040836622581	1.7868697142731373	0.17733338012829528	0.7435787878548707	1.839781474777011	0.09655068013590418	0.7234031541824546	1.8249610402477638	0.06531365807216517	0.9182631165818096	1.8400102681985027	0.30575364973673785	0.42431350861157974	0.4215014685094735	0.30490146083625097	0.3871202255067038	0.1917509817581331	0.3305158626982859	0.30249654609462984	0.3148624431656779	0.45813624271028686	0.49029113326428153	0.49662802015751917	0.5133444863901155	0.6379495022284569	0.7307436885966191	0.5427646277555509	0.6718095116270418	0.9455999153001955	0.545579214044615	0.6555078296693813	1.0776141553295682	0.5559915588247717	0.6784206411718785	1.1030818709497103	0.5414896113343999	0.7096424013081162	1.1017464280492015	0.14318735777067484	0.44482377193304035	0.5040724928685347	0.11115116097181615	0.42734652525645656	0.7566673530140653	0.12383015502635877	0.4229804441381321	0.9833445019143383	0.1755696306013378	0.39514697836027235	1.0814590276069784	0.14860882637884276	0.40400113397159526	1.110206902940459	0.11355019655359623	0.4476812095514493	1.1090500346556413
291	5.82	0.3761028002895922	0.5978958217044701	0.9305036234508286	0.36025174326959275	0.7402127821466653	1.3586600694792508	0.3376148175965204	0.8795523979875947	1.7896441681904476	0.3502352839766312	0.7429620342030332	1.8290290671112255	0.40554664234761284	0.7825152115210432	1.8233846757788466	0.2904075850381428	0.9144944736171602	1.8241863927624236	0.17057327495115085	0.5649895905533652	0.948120306827644	0.12395518878769038	0.7066252591273253	1.370170229432627	0.09674817285444118	0.8282561717632367	1.7884737170131102	0.17745954131691694	0.7443454989961313	1.8404634970842628	0.09653923492346748	0.7241048097726325	1.8254641347726586	0.06475761090954693	0.9179474989035973	1.8404265272211235	0.3076145688581597	0.42522673816837014	0.4221587211197172	0.30472180807029464	0.38754440703475745	0.19173759064796653	0.33069174563481496	0.3028196640330932	0.3166308175319717	0.45827737395700835	0.4909030040242173	0.4964883789767992	0.5134116066972739	0.6377911434566657	0.7311284036430764	0.5489872016228406	0.6622998213963487	0.9485187057732324	0.5508485690168279	0.6402430644841548	1.0808165923000232	0.563787247126809	0.6547892815100784	1.1021622397292343	0.5441077682047566	0.7074779297296754	1.1045227154953663	0.14330429501893494	0.44572418008739845	0.5040210633268809	0.11117890914230864	0.4272496077179375	0.7556769318678517	0.12198775756133473	0.4270288363225761	0.9832343987196226	0.17177258013502245	0.4017544529944939	1.0830473825488864	0.14090185437583913	0.4213017547299098	1.112304603316354	0.11136894948674825	0.45245263908549993	1.107359644413955
292	5.84	0.37567810607836116	0.5984157988077453	0.9317907908435853	0.36005591634288614	0.7391703907939715	1.3583643416743998	0.33757479343780245	0.8794710539611046	1.7897745662945699	0.3465171775938451	0.7482145456914479	1.8329709598164012	0.40559141218440997	0.7825655135232614	1.825713816926656	0.29265497996151923	0.9129755222172522	1.8237735119496987	0.17071152934191489	0.5649134567692562	0.9481746422697603	0.1257074192572383	0.7077912043419468	1.37065979275497	0.09698125785685596	0.827976270858508	1.7887417667145398	0.17755690088264306	0.7445768953756915	1.8408767103027965	0.09650295833783179	0.7245318173350987	1.825941607884619	0.06508315020918326	0.9175753752184654	1.8402081934017844	0.30899989665384664	0.42597120244170117	0.4233793589410001	0.3056784469453513	0.39058355775430786	0.1912216882817354	0.3305573581081903	0.3025712257166919	0.3169274132969598	0.4583560502472145	0.4911005562705631	0.4962618267424903	0.5131533598576806	0.6381830880046458	0.7323602368713394	0.5563947388343387	0.6494405728243962	0.9525093530008572	0.5519557290260272	0.6220352684933688	1.08527439564516	0.5696148983344372	0.6322394562577655	1.101663934725022	0.5479496390343845	0.706342608038408	1.106536616140003	0.14318286748581102	0.44552888657030826	0.5040200757144409	0.11118355391854033	0.4273231181032038	0.7554564647336851	0.12015803053314049	0.4325711137605115	0.9832876149525526	0.16806892648820537	0.40777167401790426	1.084298196586856	0.13475474317974515	0.4350224387058401	1.1144053625906516	0.11005978023128757	0.4554989165831514	1.105234728850931
293	5.86	0.3759317249151318	0.5988855568703938	0.9330027506679364	0.3597185309398398	0.7376079172580823	1.3574522560655495	0.33750684348739424	0.8790024807881298	1.7897732670091944	0.34464761821397066	0.7509033658619093	1.8355370492209353	0.40575413785915726	0.7822825071596209	1.826345638883928	0.2956193553579774	0.90823410736244	1.8224417094296692	0.17078355114774402	0.5648586121054068	0.9482201769674887	0.12797699785010883	0.7069395463278219	1.3709265198224896	0.09732753994580962	0.826890771268502	1.788190348472483	0.1775149732968745	0.7442202323301178	1.8425548635542592	0.09655754538436502	0.7239680650829398	1.826116205974694	0.0685607153961216	0.9123864236549695	1.8383921929878861	0.30962124253868706	0.42632892618997387	0.42432160890052284	0.3080558486142833	0.39570034580057534	0.19026508613551654	0.32911875884589104	0.3016188401763099	0.31644701293284333	0.45839724141926586	0.49093683063649285	0.4961150874766125	0.5130848883180676	0.6391325038384552	0.7349537503598225	0.5626287607579834	0.635937115228786	0.9573641861228311	0.5498482006063672	0.6020085569011114	1.0881464316241252	0.5700906793760614	0.6174917660289423	1.102185353393651	0.5507101404117711	0.706048858855381	1.1089186533196913	0.1430740903037892	0.44538302261959783	0.5040066074845768	0.1112868005709128	0.42714595623138013	0.7555334697898792	0.11906811749653637	0.4387750196433951	0.98194640979851	0.16564643881129068	0.4116069148768775	1.0838844246083088	0.13078888490252905	0.44291287356465636	1.1154494451413495	0.10987289016852489	0.4558503746183811	1.1025028173902596
294	5.88	0.37674875317010037	0.5977266767903215	0.9332208002928565	0.35973089896251215	0.738201919946047	1.3564982527229597	0.3377745448589924	0.8785295108142828	1.7896069290035135	0.34308851049077377	0.7518879840233883	1.8375013499278885	0.4059849849613393	0.781589211062357	1.8259076229886833	0.299377989800503	0.9008122129315121	1.8198498465188773	0.17083576645387283	0.5646500706038083	0.9482850684757889	0.12882505515565906	0.704997235096316	1.368527505288641	0.09801531553060844	0.8270873317348564	1.7880268644645483	0.17758820080577117	0.7438954578925596	1.8445956954870655	0.0966373833271071	0.7231826673174573	1.8256883530892218	0.07520186059268397	0.9030213588981919	1.8355042370451087	0.3094247386835709	0.42733286023440903	0.4246639255546325	0.31034875288071784	0.3997741853674741	0.18941206524180504	0.3255403635355707	0.30121399221648876	0.3158851543452785	0.4584638743183502	0.49093143007306356	0.4966750135631367	0.5135503116515835	0.6390597898869281	0.7379060689327661	0.5654569019294481	0.6259937077200168	0.9634506430919998	0.5459215958591146	0.5855420652294968	1.0890011816751064	0.5655554198344419	0.6080056554193415	1.1031597872689938	0.5516259142108174	0.7061745203276865	1.1115941483931246	0.14309387746573718	0.44528890685254396	0.5039786274383214	0.11137074097791932	0.4267216912274645	0.7555787896970806	0.11884312479458957	0.4441146038403875	0.9791217208108706	0.16590092764876957	0.41196831847601917	1.0809953751208243	0.12963733648639797	0.4433404453944201	1.1135588824200775	0.11017701206297885	0.4552763371580041	1.0996974024605393
295	5.9	0.3772314499351537	0.5935748145759214	0.9329146586379148	0.3605592861202638	0.7427519764171898	1.3563761969102122	0.33877691975360846	0.8797834819697545	1.7894661785726436	0.3385776514611459	0.7551431108114564	1.8410086941372965	0.40546179863175147	0.781315970752395	1.8253949111845182	0.30389759797188426	0.8946856417642957	1.8170586051655297	0.17101044337956917	0.5641196484111174	0.948385475336336	0.128983357685921	0.7034902622790163	1.364278673768487	0.09881143960367414	0.8314258375025987	1.7897588001365232	0.17819637105309344	0.7453149772398581	1.8456453059692433	0.09626923753103597	0.7261729270888038	1.8248131462579336	0.08233129440207705	0.8957080985268628	1.833397779050543	0.30779837595795334	0.43057112156327865	0.42459349569652993	0.3100606007005424	0.40097280356884846	0.18913850219701533	0.32030689507740984	0.30436332732048593	0.31560789863617994	0.45867947985488855	0.49153114204498893	0.4986177435562185	0.5147397819800711	0.6344085484052938	0.7401415707208365	0.563809465782743	0.6188949836903226	0.9706233436606867	0.5402925658651453	0.5785387718649306	1.0903970808137837	0.5583479412244948	0.597476295782158	1.1034315802534624	0.5512563232792667	0.7041983161827288	1.1135683734784803	0.14311547277366396	0.44524443049858214	0.5039273047543875	0.1107768461392113	0.4274147732792697	0.7556762210500348	0.1185685066450841	0.44764065306462797	0.9765770760205708	0.16949733494648653	0.4079460333818138	1.0764758115941684	0.1338186262908274	0.4334116148432393	1.1077193807707166	0.11080455588963684	0.4556348308939751	1.0977042503272632
